<?xml version="1.0" encoding="UTF-8" standalone="no"?>
<!DOCTYPE svg PUBLIC "-//W3C//DTD SVG 1.1//EN" "http://www.w3.org/Graphics/SVG/1.1/DTD/svg11.dtd">
<svg width="100%" height="100%" viewBox="0 0 756 567" version="1.1" xmlns="http://www.w3.org/2000/svg" xmlns:xlink="http://www.w3.org/1999/xlink" xml:space="preserve" xmlns:serif="http://www.serif.com/" style="fill-rule:evenodd;clip-rule:evenodd;stroke-linejoin:round;stroke-miterlimit:2;">
    <g transform="matrix(0.32,0,0,0.32,0,0)">
        <g id="board-outline">
            <path id="for_export" d="M1713.1,703.453C1674.19,708.222 1635.97,717.735 1599.3,731.801C1597.34,730.957 1595.41,730.449 1593.49,730.204C1589.64,729.711 1585.69,730.228 1581.39,732.153C1573.22,730.311 1570.32,731.409 1565.11,735.209C1563.15,736.639 1561.4,738.696 1560.05,740.839C1558.93,741.331 1557.82,741.908 1556.81,742.564C1552.31,742.909 1547.66,744.716 1542.13,750.94L1542.1,750.973C1536.63,751.557 1532.82,753.843 1530.05,756.968C1528.55,758.658 1527.26,760.776 1526.39,763.45C1524.95,763.365 1523.81,763.42 1523.15,763.567C1523.15,763.567 1523.15,763.567 1523.14,763.567C1516.58,765.03 1511.54,766.729 1508.62,768.183C1505.21,769.877 1503.18,771.907 1502.08,773.422C1499.36,777.133 1497.97,782.309 1498.46,787.444C1498.93,792.403 1501.12,797.107 1504.33,800.266C1504.43,800.409 1506.75,803.577 1507.84,805.502C1508.56,806.774 1509.36,808.004 1510.21,809.157L1509.8,810.04C1508.98,811.964 1508.32,814.654 1508.68,820.254C1506.6,821.565 1504.3,823.312 1501.71,825.591C1501.71,825.591 1501.71,825.591 1501.71,825.591C1493.8,832.553 1492.65,835.772 1491.81,842.006C1491.81,842.006 1491.81,842.006 1491.81,842.006C1491.14,847.003 1491.67,849.852 1492.8,852.533C1493.29,853.695 1493.96,854.908 1495.06,856.297L1494.68,856.31C1489.29,856.428 1483.07,857.835 1480.42,859.033C1472.8,858.552 1469.23,859.608 1463.71,864.24C1460.93,863.459 1457.54,862.696 1454.3,862.223C1454.3,862.223 1454.3,862.223 1454.3,862.223C1451.55,861.821 1450.78,862.209 1449.61,861.067C1444.94,856.535 1438.14,854.164 1435.38,854.164C1433.71,854.164 1431.14,854.554 1428.22,855.701C1424.86,857.017 1420.34,859.532 1417.24,861.795C1416.74,862.159 1416.27,862.532 1415.83,862.91C1407.82,861.946 1401.55,863.49 1398.41,865.327C1395.33,867.13 1393.35,869.426 1392.23,871.985C1390.8,873.376 1387.96,876.087 1385.1,878.606C1385.1,878.606 1385.1,878.606 1385.1,878.606C1382.59,880.817 1380.14,885.059 1379.38,889.897C1378.59,890.827 1377.8,891.886 1377.09,893.037C1375.23,894.085 1373.3,895.67 1371.61,897.926C1369.65,900.545 1367.91,904.405 1366.97,908.152C1363.6,910.376 1361.97,912.644 1360.85,915.002C1359.87,917.074 1359.25,919.473 1359.25,922.777C1359.25,923.185 1359.26,923.605 1359.3,924.033C1357.54,925.046 1355.66,926.507 1353.3,928.589C1346.59,934.499 1344.51,937.812 1343.52,940.778C1342.65,943.399 1342.39,946.184 1342.91,950.568C1342.91,950.568 1342.91,950.568 1342.91,950.568C1343.72,957.233 1346.16,961.643 1349.37,964.717C1351.71,966.956 1354.58,968.625 1358.2,969.573C1360.13,971.156 1363.56,972.706 1363.56,972.706C1363.56,972.706 1364.79,973.412 1365.5,973.892L1366.03,974.233C1366.33,976.442 1367.12,978.809 1368.53,981.458C1369.16,982.647 1369.8,983.772 1370.43,984.826C1369.47,986.498 1368.65,988.552 1367.79,991.215C1367.42,992.363 1366.71,994.126 1366.71,994.126C1366.71,994.126 1367.32,993.27 1367.88,992.527C1366.37,994.731 1364.21,999.414 1364.21,1004.46C1364.21,1010.05 1366.81,1015.65 1370.51,1019.22C1372.02,1020.69 1373.7,1021.83 1375.46,1022.66C1375.13,1023.68 1374.89,1024.71 1374.73,1025.75C1372.06,1027.06 1369.44,1028.78 1367.35,1030.67C1365.74,1031.12 1364.1,1031.81 1362.51,1032.79C1358.71,1035.12 1354.97,1039.37 1352.85,1044.39C1349.32,1045.02 1344.8,1046.31 1341.03,1047.92C1335.75,1046.48 1332.18,1046.83 1327.24,1048.88C1327.24,1048.88 1327.24,1048.88 1327.24,1048.88C1323.55,1050.41 1318.32,1054.62 1314.68,1059.28C1313.23,1061.13 1312.04,1063.04 1311.15,1064.83L1311.14,1064.84C1301.22,1067.9 1297.11,1071.75 1295.04,1075.27C1293.79,1077.41 1293.01,1079.73 1292.76,1082.43C1291.78,1084.33 1290.71,1087.94 1290.65,1091.79C1288.42,1096.07 1288,1102.22 1289.81,1107.48C1289.65,1108.44 1289.55,1109.42 1289.51,1110.36C1286.67,1115.01 1285.59,1122.2 1287.34,1128.93C1285.13,1133.43 1284.81,1137.35 1285.39,1140.68C1285.74,1142.66 1286.41,1144.62 1287.54,1146.48C1283.96,1151.32 1281.56,1157.34 1280.94,1162.93C1280.08,1170.76 1282.61,1177.57 1286.93,1181.62C1286.93,1181.62 1286.93,1181.62 1286.93,1181.62C1290.36,1184.83 1292.71,1187.07 1306.9,1187.13C1306.9,1187.13 1306.91,1187.13 1306.91,1187.13C1309.63,1187.14 1313.02,1187.32 1314.19,1187.39L1314.41,1187.45C1314.69,1187.51 1314.97,1187.56 1315.25,1187.62L1316.12,1187.74C1317.14,1189.64 1318.39,1191.28 1319.68,1192.37C1321.11,1193.59 1323.27,1194.86 1325.67,1196.01C1325.66,1197.33 1325.82,1198.78 1326.17,1200.45C1326.52,1202.09 1327.14,1205.48 1327.56,1207.99C1328.81,1215.59 1331.75,1219.69 1335.18,1222.23C1338.04,1224.36 1341.94,1225.86 1347.79,1225.7L1347.8,1225.79L1347.94,1226.75C1345.31,1229.38 1343.09,1233.27 1342.03,1237.24C1340.18,1238.62 1338.74,1240.26 1337.62,1242.08C1335.54,1245.44 1334.3,1249.96 1335.27,1256.15C1333.39,1257.66 1331.59,1259.47 1330.4,1261.06C1328.69,1262.12 1326.85,1263.64 1325.3,1265.4C1317.89,1267.6 1311.67,1273.97 1310.31,1280.85C1310.08,1282.01 1309.62,1283.73 1309.26,1284.67C1307.65,1288.84 1307.2,1292.03 1308.49,1296.11C1303.09,1301.36 1300.78,1309.09 1304,1318.63C1301.83,1326.69 1303.81,1334.49 1309.41,1340.32C1309.77,1341.4 1310.23,1342.48 1310.78,1343.5C1310.89,1346.64 1311.77,1350.59 1313.49,1354.21C1314.61,1356.57 1316.06,1358.73 1317.59,1360.51C1317.97,1365.58 1319.89,1369.67 1322.56,1372.68C1324.02,1374.31 1325.72,1375.69 1327.66,1376.73C1327.63,1378.97 1327.87,1381.87 1328.4,1385.84C1328.4,1385.84 1328.4,1385.84 1328.4,1385.84C1329.97,1397.6 1332.22,1400.09 1336.37,1403.65C1336.37,1403.65 1336.37,1403.65 1336.37,1403.66C1344.4,1410.56 1355.83,1410.08 1363.16,1402.92C1363.99,1402.67 1364.88,1402.36 1365.8,1401.98C1367.63,1401.22 1369.74,1400.18 1371.76,1399.06C1374.3,1400.79 1378.04,1402.18 1383.79,1402.19C1384.22,1403.12 1384.7,1403.99 1385.2,1404.75C1385.2,1404.75 1385.2,1404.75 1385.2,1404.75C1386.27,1406.34 1388.06,1409.07 1389.18,1410.82C1389.18,1410.82 1389.18,1410.82 1389.18,1410.82C1393.29,1417.2 1398.23,1420.23 1402.87,1421.26C1407.23,1422.24 1411.96,1421.77 1416.77,1418.9L1417.53,1419.88L1418.17,1420.6C1417.64,1424.33 1417.62,1427.37 1417.96,1432.45C1418.02,1433.26 1417.85,1434.73 1417.65,1435.72C1417.65,1435.72 1417.65,1435.72 1417.65,1435.72C1416.99,1438.93 1416.98,1441.24 1417.36,1443.42C1417.76,1445.75 1418.6,1448.16 1421.02,1451.57C1419.6,1455.2 1418.32,1459.38 1417.58,1462.78C1409.09,1468.8 1405.85,1480.48 1412.69,1494.08C1412.69,1494.08 1412.69,1494.08 1412.69,1494.08C1413.09,1494.86 1413.49,1495.62 1413.9,1496.35C1412.2,1501.09 1410.92,1506.59 1410.92,1508.86C1410.92,1510.23 1411.14,1512.12 1412.04,1514.31C1412.87,1516.34 1415.04,1519.8 1417.8,1522.73C1417.8,1522.73 1417.8,1522.73 1417.8,1522.73C1418.24,1523.18 1418.79,1523.84 1419.16,1524.28C1419.56,1525.11 1420.07,1525.93 1420.72,1526.75C1421.65,1527.92 1423.55,1529.59 1426.11,1530.87C1428.72,1534.29 1432.85,1537.11 1438.29,1537.99C1438.58,1539.28 1438.99,1540.35 1439.48,1541.33C1440.78,1543.95 1442.95,1546.8 1450.21,1550.36L1450.51,1550.52C1451.1,1551.63 1451.82,1552.7 1452.69,1553.71C1455.38,1556.81 1460.09,1559.64 1466,1560.55C1466.65,1564 1468.29,1566.9 1472.3,1571.97C1478.98,1580.42 1486.41,1583.49 1492.11,1583.53C1497.97,1583.56 1503.48,1581.14 1507.67,1575.17C1507.67,1575.17 1507.67,1575.17 1507.67,1575.17C1508.52,1573.97 1511.34,1570.07 1513.95,1566.5C1514.84,1565.28 1515.7,1564.02 1516.49,1562.8L1516.93,1562.82C1521.64,1562.97 1526.78,1561.12 1530.02,1558.91C1530.45,1558.75 1530.89,1558.56 1531.35,1558.33L1531.45,1558.27C1533.16,1559.55 1535.27,1560.85 1537.94,1562.22C1543.71,1565.2 1550.03,1566.83 1551.62,1566.83C1555.01,1566.83 1559.16,1565.54 1562.8,1562.74C1565.13,1560.95 1567.18,1558.56 1568.7,1556.01L1569.32,1556.3C1569.57,1559.86 1571.02,1564.34 1574.86,1568.71C1575,1568.87 1575.09,1568.98 1575.1,1569.18C1575.1,1569.18 1575.1,1569.18 1575.1,1569.18C1575.38,1573.06 1576.04,1575.43 1576.98,1577.37C1578.29,1580.05 1580.22,1582.59 1586.02,1585.88C1586.29,1588.65 1586.83,1591.68 1587.43,1593.66L1588.83,1598.27C1587.08,1602.67 1586.76,1608.23 1587.53,1611.23C1587.53,1611.23 1587.53,1611.23 1587.53,1611.23C1588.58,1615.31 1594.45,1623.22 1599.85,1627.26C1600.55,1627.78 1601.25,1628.24 1601.94,1628.65L1602.53,1632.02C1604.33,1642.21 1609.39,1647.27 1617.77,1649.34C1618.03,1649.53 1618.31,1649.7 1618.6,1649.88C1620.47,1651.01 1624.22,1652.29 1628.14,1652.29C1628.23,1652.29 1628.4,1652.34 1628.52,1652.38C1632.75,1654.27 1636.06,1654.64 1639.53,1653.66C1641.26,1654.28 1643.12,1654.72 1644.86,1654.94C1647.72,1657.16 1651.53,1658.54 1659.57,1658.07L1659.73,1658.07C1664.75,1662.11 1671.13,1663.49 1678.02,1660.81C1680.02,1663.06 1682.7,1664.91 1687.05,1667.1C1696.74,1671.98 1704,1671.66 1708.82,1669.51C1714.36,1667.03 1719.35,1661.44 1720.5,1650.34C1720.79,1647.52 1721.41,1643.3 1721.88,1640.96C1722.01,1640.31 1722.14,1639.63 1722.25,1638.93L1722.29,1638.92C1725.38,1637.65 1728.67,1635.27 1732.99,1627.78C1734.97,1628.03 1737.55,1628.13 1741.1,1628.03C1741.1,1628.03 1741.1,1628.03 1741.1,1628.03C1753.04,1627.68 1755.39,1625.84 1759.47,1622.04C1759.47,1622.04 1759.47,1622.04 1759.47,1622.04C1761.88,1619.78 1763.2,1617.9 1764.11,1615.98C1764.83,1614.45 1765.38,1612.78 1765.58,1610.48C1766.66,1610.48 1767.66,1610.37 1768.6,1610.19C1770.32,1612.12 1772.58,1613.86 1775.42,1615.2C1776.02,1617.38 1777.02,1619.25 1778.26,1620.84C1780.99,1624.37 1786,1627.69 1795.2,1627.93C1797.33,1630.82 1800.46,1634.17 1803.44,1636.45L1803.79,1636.72C1804.53,1640.58 1806.39,1644.65 1808.34,1646.85C1808.34,1646.85 1808.34,1646.85 1808.34,1646.85C1810.82,1649.63 1816.76,1653.12 1822.37,1654.73C1824.35,1655.29 1826.28,1655.6 1828.05,1655.72C1828.58,1656.33 1829.12,1657 1829.51,1657.48C1830.45,1659.5 1832.02,1661.47 1834.49,1663.1C1836.4,1664.37 1839.78,1665.69 1843.4,1666.13C1846.64,1666.52 1849.97,1666.18 1852.43,1665.41C1853,1665.34 1856.12,1665.01 1858.01,1665.01C1867.66,1665.02 1871.53,1663.14 1874.16,1660.66C1875.3,1660.37 1876.47,1659.99 1877.59,1659.53C1883.03,1660.48 1889.48,1659.21 1895.45,1654.95C1901.52,1655.51 1905.55,1653.95 1908.6,1651.58C1909.65,1650.77 1910.68,1649.77 1911.62,1648.52C1913.94,1649.06 1916.88,1649.33 1921.12,1649.41C1928.15,1649.56 1931.33,1648.84 1933.6,1647.83C1936.03,1646.76 1938.01,1645.31 1940.38,1642.55C1940.38,1642.55 1940.38,1642.55 1940.38,1642.55C1943.03,1639.48 1944.52,1636.35 1945.2,1633.02C1946.05,1628.88 1945.69,1624.1 1942.97,1618.01C1942.97,1618.01 1942.97,1618.01 1942.97,1618.01C1941.27,1614.21 1939.65,1609.47 1939.65,1609.47L1939.67,1609.67C1939.56,1608.92 1939.36,1608.03 1939.07,1607.05L1939.51,1606.42C1941.03,1604.15 1942.47,1600.34 1943.29,1595.19C1945.13,1594.59 1947.42,1593.63 1950.43,1592.12C1956.36,1589.14 1961.87,1584.4 1963.24,1582.34C1965.35,1579.17 1966.76,1573.74 1966.26,1568.23C1966.11,1566.64 1965.82,1565.07 1965.39,1563.58C1965.77,1563.34 1966.14,1563.1 1966.51,1562.84C1968.57,1563.52 1971.2,1563.85 1974.85,1563.65C1976.59,1565.71 1978.63,1567.18 1980.79,1568.2C1985.38,1570.35 1991.58,1570.81 1998.83,1566.97C2001.61,1568.66 2004.49,1569.86 2006.17,1570.29C2007.74,1570.69 2009.11,1570.79 2010.23,1570.74C2013.41,1574.75 2019.01,1577.57 2029.18,1577.87C2034.03,1578.02 2037.25,1577.67 2039.69,1576.89C2040.56,1577.21 2041.4,1577.44 2042.18,1577.58L2041.66,1577.51C2041.66,1577.51 2042.32,1577.75 2042.65,1577.91C2042.65,1577.91 2042.65,1577.91 2042.65,1577.91C2049.79,1581.35 2053.91,1581.57 2057.24,1580.94C2060.09,1580.41 2062.89,1579.17 2066.24,1576.34L2066.79,1575.92C2067.67,1575.59 2068.6,1575.13 2069.55,1574.5C2071.1,1573.47 2073.86,1570.82 2075.97,1567.41L2075.97,1567.4C2078.92,1565.63 2081.64,1562.71 2083.07,1559.79L2085.78,1556.96C2087.16,1556.48 2088.62,1555.78 2090.08,1554.81C2093.1,1552.81 2096.4,1549.36 2098.63,1545.88C2103.72,1544.03 2108.21,1539.7 2110.39,1532.52C2114.9,1531.85 2119.54,1530.28 2123.39,1528.13C2128.29,1525.39 2131.89,1521.67 2133.71,1518.14C2133.71,1518.14 2133.71,1518.14 2133.71,1518.14C2135.33,1515.02 2135.9,1512.75 2136.01,1510.36C2136.13,1507.92 2135.73,1504.88 2132.98,1498.88C2132.98,1498.88 2132.98,1498.88 2132.98,1498.88C2131.11,1494.78 2128.41,1491.09 2126.62,1489.4C2125.54,1488.37 2124.46,1487.63 2123.48,1487.09C2122.77,1486.5 2120.2,1484.3 2118.31,1482.47C2118.62,1480.21 2118.48,1476.66 2114.89,1469.21C2114.89,1469.21 2114.89,1469.21 2114.89,1469.21C2114.76,1468.95 2114.63,1468.65 2114.5,1468.34C2115.86,1467.02 2117.41,1465.24 2119.23,1462.77C2126.27,1453.24 2127.37,1444.63 2125.62,1438.59C2124.66,1435.26 2122.91,1432.23 2120.19,1429.74L2120.23,1429.65C2123.06,1429.65 2125.41,1428.96 2128.33,1427.19C2131.01,1427.99 2133.78,1428.03 2136.54,1427.48C2140.61,1426.66 2145.49,1423.92 2149.64,1418.24C2154.07,1418.39 2158.29,1417.7 2162.99,1415.92C2169.06,1419.07 2176.2,1418.86 2185.65,1412.86C2188.23,1411.23 2190.18,1409.68 2191.65,1408.18C2197.28,1407.89 2203.93,1406.59 2206.32,1405.37C2207.54,1404.75 2209.16,1403.66 2210.77,1401.86C2212.56,1399.85 2215.21,1395.63 2217.03,1391.74C2218.35,1388.94 2219.08,1386.17 2219.44,1383.85C2222.15,1379.67 2223.1,1375.69 2222.59,1371.31C2222.97,1370.42 2223.28,1369.48 2223.51,1368.5C2227.01,1365.19 2228.86,1361.78 2229.63,1353.73L2229.68,1353.4C2233.28,1349.31 2235.24,1343.29 2234.15,1336.52C2236.35,1334.88 2238.51,1332.41 2241.43,1328.29C2241.43,1328.29 2241.43,1328.29 2241.43,1328.29C2243.97,1324.71 2246.02,1320.9 2246.79,1318.87C2247.63,1316.64 2247.8,1314.81 2247.8,1313.64C2247.8,1308.33 2244.85,1301.71 2239.71,1296.83C2234.95,1292.31 2228.65,1289.57 2223.4,1289.43C2223.23,1289.4 2220.27,1288.76 2218.72,1288.19C2218.01,1287.93 2217.29,1287.69 2216.57,1287.46C2215.5,1285.01 2213.42,1282.09 2208.07,1277.45L2207.71,1277.13L2207.72,1277.11C2209.04,1273.14 2210.01,1267.03 2210.03,1260.52C2210.06,1250.64 2204.16,1242.73 2194.86,1240.15L2194.84,1239.49C2196.62,1238.22 2198.35,1236.58 2199.85,1234.57C2202.31,1234.25 2204.58,1233.35 2206.63,1232.03C2210.47,1229.56 2214.33,1224.61 2215.51,1216.43C2218.46,1214.86 2222.02,1212.43 2224.86,1209.64C2224.86,1209.64 2224.86,1209.64 2224.86,1209.64C2225.28,1209.22 2225.8,1208.76 2226.21,1208.39C2231.29,1208.05 2234.88,1206.62 2240.92,1199.77C2244.58,1195.61 2246.71,1191.79 2247.75,1188.36C2248.98,1187.71 2250.2,1186.98 2251.36,1186.17C2251.36,1186.17 2251.36,1186.17 2251.36,1186.17C2256.44,1182.66 2258.53,1180.4 2259.87,1178.1C2261.31,1175.62 2262.19,1172.71 2262.49,1166.59C2262.75,1161.09 2261.71,1155.75 2260.59,1152.85C2260.67,1149.76 2259.86,1145.71 2258.61,1142.85C2258.6,1141.13 2258.3,1139.32 2257.82,1137.61C2258.28,1135.67 2258.5,1133.46 2258.37,1131.1C2258.2,1128.11 2257.46,1124.87 2256.32,1122C2256.84,1119.81 2256.91,1117.59 2256.57,1115.33C2256.13,1112.39 2254.82,1109.02 2251.96,1105.35C2253.66,1102.44 2254.43,1099.25 2255.04,1093.47C2255.04,1093.47 2255.04,1093.47 2255.04,1093.47C2255.84,1085.83 2254.61,1080.9 2252.38,1077.23C2249.96,1073.24 2246.04,1069.93 2238.74,1067.6C2238.73,1067.6 2238.73,1067.6 2238.73,1067.6C2233.3,1065.87 2230.49,1065.78 2227.91,1066.17C2226.02,1066.45 2224.12,1067.05 2221.55,1068.35C2221.23,1068.44 2218.17,1069.28 2216.52,1069.46C2216.52,1069.46 2216.52,1069.46 2216.52,1069.46C2215.63,1069.56 2214.74,1069.69 2213.86,1069.84C2211.62,1068.1 2208.29,1066.59 2202.85,1065.21C2202.85,1065.21 2202.85,1065.21 2202.85,1065.21C2202.24,1065.05 2201.5,1064.83 2200.82,1064.6C2200.45,1061.49 2199.58,1058.36 2198.18,1055.65C2198.18,1055.65 2198.18,1055.65 2198.18,1055.65C2198.11,1055.5 2198.01,1055.28 2197.94,1055.09C2197.78,1054.08 2197.47,1052.92 2196.94,1051.68C2196.14,1049.83 2194.09,1046.63 2191.45,1043.94C2191.45,1043.94 2191.45,1043.94 2191.45,1043.94C2185.96,1038.33 2180.02,1036.17 2174.34,1036.86C2175.99,1034.81 2177.92,1031.06 2178.58,1026.95C2178.58,1026.95 2178.58,1026.95 2178.58,1026.95C2178.68,1026.28 2179,1025.13 2179.1,1024.77C2181.3,1020.21 2181.74,1013.32 2179.8,1007.23C2181.32,1005.01 2182.45,1002.62 2183.18,1000.53C2184.82,998.753 2186.33,996.483 2187.29,994.561C2187.71,994.037 2189.36,992.017 2190.6,990.75C2196.23,985.001 2198.56,980.516 2199.43,976.483C2200.23,972.769 2200.01,969.068 2198.51,964.773C2198.51,964.773 2198.51,964.773 2198.51,964.773C2198.39,964.401 2198.29,963.84 2198.23,963.444C2201.21,959.306 2202.31,955.812 2202.5,952.303C2202.69,948.838 2201.92,944.945 2199.12,939.664C2198.16,937.855 2197.09,936.098 2196.12,934.633C2196.11,928.833 2194.2,924.284 2191.48,921.047C2189.37,918.53 2186.71,916.621 2183.53,915.54C2182.62,910.16 2179.2,904.279 2175.67,901.147C2174.78,900.356 2173.86,899.693 2172.94,899.144C2172.1,894.569 2169.65,891.293 2166.2,888.951C2164.79,887.996 2162.95,887.136 2160.64,886.593C2160.12,883.972 2159.2,881.21 2157.86,878.196C2157.86,878.196 2157.86,878.196 2157.86,878.196C2154.54,870.756 2150.82,867.163 2147.07,865.295C2142.92,863.231 2137.7,862.559 2129.91,865.077C2123.07,867.284 2118.57,870.485 2116.3,873.176C2115.85,873.71 2115.44,874.249 2115.08,874.794C2113.74,875.573 2112.47,876.514 2111.39,877.606L2111.15,877.829C2109.29,877.371 2107.19,877.089 2104.86,877.075L2101.6,877.036C2100.35,875.008 2098.31,872.629 2094.58,869.291C2094.58,869.291 2094.58,869.291 2094.58,869.291C2086.47,862.025 2082.69,861.228 2077.28,861.164C2077.28,861.164 2077.28,861.164 2077.28,861.164C2074.08,861.127 2071.76,861.586 2069.65,862.408C2067.47,863.261 2065.33,864.533 2062.82,867.18C2062.19,866.64 2061.53,866.136 2060.84,865.678C2060.84,862.331 2059.93,857.939 2058.65,855.036C2059.11,851.355 2058.84,848.872 2058.09,846.526C2057.3,844.026 2055.8,841.263 2051.23,836.947C2051.53,834.162 2051.71,830.831 2051.59,827.614C2051.55,826.484 2051.56,825.222 2051.58,824.303C2052.55,822.73 2053.45,820.849 2054.12,818.742C2055.69,813.76 2056.01,807.602 2055.17,804.261C2054.59,801.951 2051.05,795.796 2046.49,791.16L2045.41,790.024C2045.53,785.781 2045.12,783.258 2044.27,781.076C2043.17,778.244 2041.14,775.251 2033.87,770.06C2033.63,769.768 2032.98,768.953 2032.74,768.476C2029.43,761.986 2024.76,758.532 2020.01,757.103C2017.57,756.37 2014.99,756.116 2012.31,756.462C2009.14,752.146 2003.71,748.627 1995.57,747.361C1995.57,747.361 1995.57,747.361 1995.57,747.361C1995.11,747.29 1994.59,747.036 1994.24,746.731C1994.24,746.731 1994.24,746.731 1994.24,746.731C1989.04,742.216 1984.44,741.096 1980.13,741.434C1979.06,741.518 1977.94,741.71 1976.77,742.057C1975.13,739.86 1973.06,737.626 1970.69,735.69C1965.14,731.164 1958.36,728.622 1954.78,728.622C1951.48,728.622 1947.7,729.796 1944.36,731.937C1907.83,717.888 1869.7,708.349 1830.85,703.532C1827.99,699.012 1824.34,695.46 1822.65,694.56C1820.95,693.649 1814.89,692.045 1809.06,691.707C1807.92,691.641 1806.48,691.49 1805.55,691.382C1803.82,690.644 1801.82,690.168 1799.59,690.109C1795.66,690.005 1790.85,691.579 1787.26,693.956C1784.02,692.281 1779.72,691.326 1775.39,691.575C1773.18,691.701 1771,692.137 1769,692.808C1766.27,691.765 1763.73,691.47 1761.23,691.674C1758.42,691.903 1755.3,692.842 1751.73,695.351C1749.31,693.678 1746.25,692.581 1741.29,691.587C1732.68,689.857 1729.62,690.154 1727.7,690.73C1726.1,691.213 1724.6,691.892 1722.78,693.377C1721.78,693.732 1720.74,694.175 1719.84,694.713C1716.28,696.825 1714.01,699.997 1713.1,703.453Z" style="fill:rgb(157,138,203);fill-opacity:0.11;stroke:rgb(255,99,0);stroke-opacity:0.41;stroke-width:4.17px;"/>
        </g>
    </g>
</svg>
